<svg width="136" height="52" viewBox="0 0 136 52" fill="none" xmlns="http://www.w3.org/2000/svg">
<path d="M2.77551 14.4805V31.0702H0V14.4805H2.77551Z" fill="white"/>
<path d="M22.4511 31.0692H19.6756L11.3224 18.6803V46.8H8.54688V14.4555H11.3224L19.6756 26.8204V0H22.4511V31.0692Z" fill="white"/>
<path d="M38.5068 14.4805V16.6997H34.0011V31.0702H31.2255V16.6997H26.6953V14.4805H38.5046H38.5068Z" fill="white"/>
<path d="M45.5512 16.6745V21.5446H51.3958V23.7639H45.5512V28.8476H52.1252V31.0668H42.7734V14.4531H52.1252V16.6724H45.5512V16.6745Z" fill="white"/>
<path d="M66.0511 31.0702L62.1547 24.4343H60.0353V31.0702H57.2598V14.4805H63.1044C64.4032 14.4805 65.504 14.7028 66.4047 15.1497C67.3054 15.5944 67.9793 16.1918 68.4263 16.9395C68.8733 17.6872 69.0957 18.5222 69.0957 19.4465C69.0957 20.5278 68.7755 21.5109 68.1327 22.3938C67.4922 23.2767 66.5048 23.8784 65.1749 24.1967L69.3626 31.0724H66.0511V31.0702ZM60.0353 22.263H63.1044C64.1429 22.263 64.9258 22.008 65.4551 21.5C65.9822 20.9899 66.2468 20.3054 66.2468 19.4465C66.2468 18.5876 65.9866 17.9161 65.4684 17.43C64.948 16.9439 64.1607 16.7019 63.1066 16.7019H60.0375V22.263H60.0353Z" fill="white"/>
<path d="M76.5727 30.6511C75.6631 30.2609 74.9492 29.7072 74.4288 28.9921C73.9084 28.2749 73.6504 27.44 73.6504 26.4851H76.6216C76.6861 27.2024 76.9752 27.791 77.4867 28.2509C77.9982 28.7131 78.7166 28.9442 79.6418 28.9442C80.5669 28.9442 81.3475 28.7175 81.8813 28.264C82.4173 27.8106 82.6842 27.2263 82.6842 26.5091C82.6842 25.9532 82.5173 25.4998 82.186 25.1488C81.8524 24.8 81.4387 24.5275 80.945 24.3379C80.4491 24.146 79.7641 23.9411 78.8878 23.7166C77.7847 23.431 76.8863 23.141 76.1968 22.8446C75.5074 22.5503 74.918 22.0925 74.431 21.4712C73.9439 20.8499 73.6993 20.0237 73.6993 18.9882C73.6993 18.0333 73.9417 17.1984 74.431 16.4812C74.918 15.764 75.6008 15.2168 76.4771 14.8331C77.3533 14.4494 78.3674 14.2598 79.5217 14.2598C81.1607 14.2598 82.504 14.6609 83.5515 15.4653C84.599 16.2697 85.1794 17.3706 85.2929 18.7723H82.2238C82.1749 18.1685 81.8835 17.6496 81.3475 17.2202C80.8116 16.7907 80.1066 16.5749 79.2281 16.5749C78.4319 16.5749 77.7825 16.7733 77.2799 17.1722C76.7773 17.5712 76.526 18.1423 76.526 18.8901C76.526 19.4002 76.6839 19.8166 77.0019 20.1436C77.3177 20.4706 77.7203 20.7278 78.2073 20.9196C78.6943 21.1115 79.3593 21.3186 80.2044 21.5409C81.3253 21.8439 82.2371 22.1448 82.9444 22.4478C83.6493 22.7508 84.252 23.2152 84.7458 23.8452C85.2417 24.473 85.4886 25.3123 85.4886 26.3631C85.4886 27.2067 85.2573 28.0024 84.7947 28.7502C84.3321 29.4979 83.6582 30.0996 82.7731 30.553C81.888 31.0064 80.8449 31.2332 79.644 31.2332C78.5075 31.2332 77.4845 31.0391 76.5749 30.6489L76.5727 30.6511Z" fill="white"/>
<path d="M93.4281 16.6745V21.5446H99.2727V23.7639H93.4281V28.8476H100.002V31.0668H90.6504V14.4531H100.002V16.6724H93.4281V16.6745Z" fill="white"/>
<path d="M104.956 18.3705C105.727 17.0822 106.773 16.075 108.096 15.3513C109.419 14.6275 110.867 14.2656 112.441 14.2656C114.243 14.2656 115.846 14.6994 117.25 15.5671C118.653 16.4347 119.674 17.6642 120.305 19.2556H116.969C116.531 18.3814 115.922 17.7274 115.144 17.298C114.365 16.8685 113.462 16.6527 112.441 16.6527C111.321 16.6527 110.322 16.8991 109.446 17.3917C108.57 17.8844 107.882 18.5929 107.389 19.515C106.893 20.4372 106.646 21.5119 106.646 22.7371C106.646 23.9622 106.893 25.0369 107.389 25.9591C107.885 26.8812 108.57 27.5941 109.446 28.0955C110.322 28.5969 111.321 28.8476 112.441 28.8476C113.464 28.8476 114.365 28.6317 115.144 28.2023C115.922 27.7728 116.531 27.121 116.969 26.2447H120.305C119.672 27.8361 118.653 29.0612 117.25 29.9201C115.846 30.779 114.243 31.2085 112.441 31.2085C110.851 31.2085 109.397 30.8466 108.082 30.1229C106.768 29.3991 105.725 28.392 104.953 27.1036C104.182 25.8152 103.797 24.359 103.797 22.7349C103.797 21.1108 104.182 19.6567 104.953 18.3662L104.956 18.3705Z" fill="white"/>
<path d="M135.429 14.4805V16.6997H130.923V31.0702H128.147V16.6997H123.617V14.4805H135.426H135.429Z" fill="white"/>
<path d="M131.882 44.6808C131.837 44.4961 131.766 44.334 131.668 44.1946C131.57 44.0516 131.448 43.9314 131.302 43.8338C131.159 43.7327 130.992 43.6578 130.8 43.609C130.612 43.5567 130.404 43.5305 130.178 43.5305C129.69 43.5305 129.273 43.6473 128.928 43.8808C128.587 44.1144 128.325 44.4507 128.144 44.8899C127.966 45.3291 127.877 45.8589 127.877 46.4794C127.877 47.1068 127.963 47.6436 128.134 48.0897C128.304 48.5359 128.559 48.8775 128.897 49.1145C129.235 49.3515 129.655 49.47 130.157 49.47C130.6 49.47 130.967 49.4055 131.26 49.2766C131.556 49.1476 131.778 48.9646 131.924 48.7276C132.071 48.4906 132.144 48.2117 132.144 47.891L132.646 47.9433H130.199V45.8729H134.946V47.3577C134.946 48.3337 134.739 49.1685 134.324 49.8621C133.913 50.5523 133.345 51.0821 132.62 51.4516C131.898 51.8176 131.07 52.0005 130.136 52.0005C129.094 52.0005 128.179 51.7792 127.391 51.3365C126.603 50.8939 125.988 50.263 125.545 49.4439C125.106 48.6247 124.887 47.6505 124.887 46.5212C124.887 45.6358 125.021 44.8516 125.289 44.1684C125.561 43.4852 125.938 42.9084 126.419 42.4378C126.9 41.9638 127.456 41.6065 128.086 41.366C128.717 41.122 129.394 41 130.115 41C130.749 41 131.339 41.0906 131.882 41.2719C132.43 41.4496 132.912 41.7041 133.331 42.0352C133.752 42.3629 134.092 42.7515 134.35 43.2012C134.608 43.6508 134.765 44.144 134.821 44.6808H131.882Z" fill="#FFF9E6"/>
<path d="M123.554 41.1464V51.8542H121.128L117.259 46.2284H117.196V51.8542H114.289V41.1464H116.757L120.563 46.7513H120.647V41.1464H123.554Z" fill="#FFF9E6"/>
<path d="M112.911 41.1464V51.8542H110.004V41.1464H112.911Z" fill="#FFF9E6"/>
<path d="M99.6035 43.4887V41.1464H108.91V43.4887H105.689V51.8542H102.824V43.4887H99.6035Z" fill="#FFF9E6"/>
<path d="M99.0546 46.5003C99.0546 47.6923 98.8228 48.6979 98.3592 49.5171C97.8957 50.3327 97.27 50.9514 96.4822 51.3731C95.6945 51.7914 94.8161 52.0005 93.8471 52.0005C92.8712 52.0005 91.9893 51.7897 91.2016 51.3679C90.4173 50.9427 89.7934 50.3222 89.3298 49.5066C88.8697 48.6875 88.6396 47.6854 88.6396 46.5003C88.6396 45.3082 88.8697 44.3043 89.3298 43.4887C89.7934 42.6696 90.4173 42.0509 91.2016 41.6326C91.9893 41.2109 92.8712 41 93.8471 41C94.8161 41 95.6945 41.2109 96.4822 41.6326C97.27 42.0509 97.8957 42.6696 98.3592 43.4887C98.8228 44.3043 99.0546 45.3082 99.0546 46.5003ZM96.064 46.5003C96.064 45.8589 95.9786 45.3187 95.8078 44.8795C95.6405 44.4368 95.3912 44.1022 95.0601 43.8756C94.7325 43.6456 94.3281 43.5305 93.8471 43.5305C93.3661 43.5305 92.9601 43.6456 92.6289 43.8756C92.3013 44.1022 92.0521 44.4368 91.8813 44.8795C91.7139 45.3187 91.6303 45.8589 91.6303 46.5003C91.6303 47.1416 91.7139 47.6836 91.8813 48.1263C92.0521 48.5655 92.3013 48.9001 92.6289 49.1302C92.9601 49.3567 93.3661 49.47 93.8471 49.47C94.3281 49.47 94.7325 49.3567 95.0601 49.1302C95.3912 48.9001 95.6405 48.5655 95.8078 48.1263C95.9786 47.6836 96.064 47.1416 96.064 46.5003Z" fill="#FFF9E6"/>
<path d="M80.5666 41.1464L82.7626 48.6962H82.8462L85.0421 41.1464H88.3256L84.7912 51.8542H80.8176L77.2832 41.1464H80.5666Z" fill="#FFF9E6"/>
<path d="M61.7142 51.8542H58.5771L62.1115 41.1464H66.0851L69.6195 51.8542H66.4825L64.1402 44.0952H64.0565L61.7142 51.8542ZM61.1286 47.6296H67.0262V49.8046H61.1286V47.6296Z" fill="#FFF9E6"/>
<path d="M49.0986 51.8542V41.1464H53.7205C54.5153 41.1464 55.2106 41.2911 55.8067 41.5804C56.4027 41.8697 56.8663 42.2862 57.1974 42.83C57.5286 43.3737 57.6941 44.0255 57.6941 44.7854C57.6941 45.5522 57.5233 46.1988 57.1817 46.7251C56.8436 47.2514 56.3678 47.6488 55.7544 47.9172C55.1444 48.1856 54.4316 48.3198 53.616 48.3198H50.8554V46.0611H53.0304C53.372 46.0611 53.663 46.0193 53.9035 45.9356C54.1475 45.8485 54.334 45.7108 54.463 45.5226C54.5954 45.3344 54.6616 45.0886 54.6616 44.7854C54.6616 44.4787 54.5954 44.2294 54.463 44.0377C54.334 43.8425 54.1475 43.6996 53.9035 43.609C53.663 43.5149 53.372 43.4678 53.0304 43.4678H52.0056V51.8542H49.0986ZM55.3727 46.9395L58.0497 51.8542H54.8917L52.2775 46.9395H55.3727Z" fill="#FFF9E6"/>
<path d="M42.4208 51.8542H38.3008V41.1464H42.3789C43.4804 41.1464 44.4319 41.3608 45.2336 41.7895C46.0388 42.2148 46.6592 42.8282 47.0949 43.6299C47.5341 44.4281 47.7537 45.3849 47.7537 46.5003C47.7537 47.6157 47.5359 48.5742 47.1002 49.3759C46.6645 50.1741 46.0475 50.7876 45.2493 51.2163C44.4511 51.6416 43.5083 51.8542 42.4208 51.8542ZM41.2078 49.3864H42.3162C42.846 49.3864 43.2974 49.301 43.6703 49.1302C44.0468 48.9594 44.3326 48.6649 44.5278 48.2466C44.7265 47.8283 44.8258 47.2462 44.8258 46.5003C44.8258 45.7544 44.7247 45.1723 44.5226 44.754C44.3239 44.3357 44.0311 44.0412 43.6442 43.8704C43.2608 43.6996 42.7902 43.6142 42.2325 43.6142H41.2078V49.3864Z" fill="#FFF9E6"/>
<path d="M26.6025 41.1464H29.8441L31.9355 45.4965H32.0192L34.1105 41.1464H37.3521L33.4204 48.4871V51.8542H30.5343V48.4871L26.6025 41.1464Z" fill="#FFF9E6"/>
<path d="M16 51.8542V41.1464H18.907V45.3291H22.7551V41.1464H25.6621V51.8542H22.7551V47.6715H18.907V51.8542H16Z" fill="#FFF9E6"/>
<path d="M133.5 36C133.776 36 134 36.2239 134 36.5C134 36.7761 133.776 37 133.5 37H15.5C15.2239 37 15 36.7761 15 36.5C15 36.2239 15.2239 36 15.5 36H133.5Z" fill="#FEC104"/>
</svg>
